<?xml version="1.0" encoding="utf-8"?>
<svg width="700px" height="700px" viewBox="0 0 700 700" version="1.1" xmlns:xlink="http://www.w3.org/1999/xlink" xmlns="http://www.w3.org/2000/svg">
  <path d="M240.85 532.65C264.92 564.993 295.108 592.293 329.7 613L329.7 513.2C299.277 515.202 269.327 521.759 240.85 532.65L240.85 532.65ZM200.55 551.55C183.907 560.899 168.172 571.779 153.55 584.05L152.55 584.05C198.112 622.607 253.987 646.946 313.25 654.05C268.647 628.526 230.178 593.539 200.55 551.55L200.55 551.55ZM181.25 371.85C184.35 416.2 196.95 457.95 216.95 495.05C252.838 480.259 290.947 471.572 329.7 469.35L329.7 371.85L181.2 371.85L181.25 371.85ZM137.4 371.85L44.5 371.85C49.246 439.399 76.3361 503.447 121.5 553.9C138.85 538.9 157.65 525.6 177.6 514.25C154.144 470.215 140.434 421.65 137.4 371.85L137.4 371.85ZM485.7 495.9C506 458.55 518.7 416.55 521.9 371.9L372.65 371.9L372.65 469.45C412.55 471.95 450.6 481.15 485.7 495.95L485.7 495.9ZM524.95 515.4C544.05 526.4 562.1 539.2 578.8 553.6C623.784 503.199 650.762 439.29 655.5 371.9L565.75 371.9C562.687 422.121 548.767 471.08 524.95 515.4L524.95 515.4ZM372.65 613.4C407.264 592.812 437.502 565.632 461.65 533.4C433.161 522.269 403.157 515.493 372.65 513.3L372.65 613.45L372.65 613.4ZM390.7 653.55C448.538 645.859 502.957 621.738 547.5 584.05L547.1 584.05C532.992 572.214 517.848 561.672 501.85 552.55C472.503 593.826 434.589 628.278 390.7 653.55L390.7 653.55ZM217 204.8C196.454 242.891 184.266 284.926 181.25 328.1L329.7 328.1L329.7 230.45C290.97 228.254 252.878 219.602 217 204.85L217 204.8ZM177.65 185.6C157.705 174.297 138.915 161.067 121.55 146.1C76.3961 196.54 49.3069 260.569 44.55 328.1L137.4 328.1C140.435 278.262 154.163 229.662 177.65 185.6L177.65 185.6ZM329.65 87C295.143 107.684 265.026 134.931 241 167.2C269.435 178.042 299.333 184.565 329.7 186.55L329.7 87L329.65 87ZM313.25 45.95C254.13 53.0074 198.369 77.2201 152.85 115.6L153.25 115.6C168 128 183.85 138.95 200.6 148.35C230.225 106.403 268.675 71.4509 313.25 45.9499L313.25 45.95ZM461.5 166.3C437.371 134.173 407.187 107.081 372.65 86.55L372.65 186.4C403.107 184.191 433.058 177.415 461.5 166.3L461.5 166.3ZM501.65 147.1C517.63 137.976 532.758 127.433 546.85 115.6L547.15 115.6C502.673 78.1234 448.406 54.1475 390.75 46.5C434.513 71.7002 472.337 106.028 501.65 147.15L501.65 147.1ZM521.9 328.1C518.846 284.522 506.449 242.111 485.55 203.75C449.663 218.834 411.5 227.791 372.65 230.25L372.65 328.1L521.9 328.1L521.9 328.1ZM565.75 328.1L655.5 328.1C650.743 260.569 623.654 196.54 578.5 146.1C561.838 160.489 543.859 173.279 524.8 184.3C548.1 227.6 562.55 276.3 565.75 328.15L565.75 328.1ZM350 700C156.7 700 2.28882e-05 543.3 0 350C-4.57764e-05 156.7 156.7 0 350 0C543.3 0 700 156.7 700 350C700 543.3 543.3 700 350 700L350 700Z" id="Shape" fill="#59ADFF" fill-rule="evenodd" stroke="none" />
</svg>